<?xml version="1.0" encoding="utf-8" standalone="no"?>
<!DOCTYPE svg PUBLIC "-//W3C//DTD SVG 1.1//EN"
  "http://www.w3.org/Graphics/SVG/1.1/DTD/svg11.dtd">
<svg xmlns:xlink="http://www.w3.org/1999/xlink" width="460.8pt" height="345.6pt" viewBox="0 0 460.8 345.6" xmlns="http://www.w3.org/2000/svg" version="1.1">
 <metadata>
  <rdf:RDF xmlns:dc="http://purl.org/dc/elements/1.1/" xmlns:cc="http://creativecommons.org/ns#" xmlns:rdf="http://www.w3.org/1999/02/22-rdf-syntax-ns#">
   <cc:Work>
    <dc:type rdf:resource="http://purl.org/dc/dcmitype/StillImage"/>
    <dc:date>2022-12-16T18:14:23.417101</dc:date>
    <dc:format>image/svg+xml</dc:format>
    <dc:creator>
     <cc:Agent>
      <dc:title>Matplotlib v3.5.2, https://matplotlib.org/</dc:title>
     </cc:Agent>
    </dc:creator>
   </cc:Work>
  </rdf:RDF>
 </metadata>
 <defs>
  <style type="text/css">*{stroke-linejoin: round; stroke-linecap: butt}</style>
 </defs>
 <g id="figure_1">
  <g id="patch_1">
   <path d="M 0 345.6 
L 460.8 345.6 
L 460.8 0 
L 0 0 
z
" style="fill: #ffffff"/>
  </g>
  <g id="axes_1">
   <g id="patch_2">
    <path d="M 36.864 321.408 
L 437.76 321.408 
L 437.76 41.472 
L 36.864 41.472 
z
" style="fill: #ffffff"/>
   </g>
   <g id="matplotlib.axis_1">
    <g id="xtick_1">
     <g id="line2d_1">
      <defs>
       <path id="m8050552385" d="M 0 0 
L 0 6 
" style="stroke: #262626; stroke-width: 1.25"/>
      </defs>
      <g>
       <use xlink:href="#m8050552385" x="76.9536" y="321.408" style="fill: #262626; stroke: #262626; stroke-width: 1.25"/>
      </g>
     </g>
     <g id="text_1">
      <!-- Group1 (&lt;10) -->
      <g style="fill: #262626" transform="translate(44.090241 338.915656)scale(0.11 -0.11)">
       <defs>
        <path id="ArialMT-47" d="M 2638 1797 
L 2638 2334 
L 4578 2338 
L 4578 638 
Q 4131 281 3656 101 
Q 3181 -78 2681 -78 
Q 2006 -78 1454 211 
Q 903 500 622 1047 
Q 341 1594 341 2269 
Q 341 2938 620 3517 
Q 900 4097 1425 4378 
Q 1950 4659 2634 4659 
Q 3131 4659 3532 4498 
Q 3934 4338 4162 4050 
Q 4391 3763 4509 3300 
L 3963 3150 
Q 3859 3500 3706 3700 
Q 3553 3900 3268 4020 
Q 2984 4141 2638 4141 
Q 2222 4141 1919 4014 
Q 1616 3888 1430 3681 
Q 1244 3475 1141 3228 
Q 966 2803 966 2306 
Q 966 1694 1177 1281 
Q 1388 869 1791 669 
Q 2194 469 2647 469 
Q 3041 469 3416 620 
Q 3791 772 3984 944 
L 3984 1797 
L 2638 1797 
z
" transform="scale(0.015625)"/>
        <path id="ArialMT-72" d="M 416 0 
L 416 3319 
L 922 3319 
L 922 2816 
Q 1116 3169 1280 3281 
Q 1444 3394 1641 3394 
Q 1925 3394 2219 3213 
L 2025 2691 
Q 1819 2813 1613 2813 
Q 1428 2813 1281 2702 
Q 1134 2591 1072 2394 
Q 978 2094 978 1738 
L 978 0 
L 416 0 
z
" transform="scale(0.015625)"/>
        <path id="ArialMT-6f" d="M 213 1659 
Q 213 2581 725 3025 
Q 1153 3394 1769 3394 
Q 2453 3394 2887 2945 
Q 3322 2497 3322 1706 
Q 3322 1066 3130 698 
Q 2938 331 2570 128 
Q 2203 -75 1769 -75 
Q 1072 -75 642 372 
Q 213 819 213 1659 
z
M 791 1659 
Q 791 1022 1069 705 
Q 1347 388 1769 388 
Q 2188 388 2466 706 
Q 2744 1025 2744 1678 
Q 2744 2294 2464 2611 
Q 2184 2928 1769 2928 
Q 1347 2928 1069 2612 
Q 791 2297 791 1659 
z
" transform="scale(0.015625)"/>
        <path id="ArialMT-75" d="M 2597 0 
L 2597 488 
Q 2209 -75 1544 -75 
Q 1250 -75 995 37 
Q 741 150 617 320 
Q 494 491 444 738 
Q 409 903 409 1263 
L 409 3319 
L 972 3319 
L 972 1478 
Q 972 1038 1006 884 
Q 1059 663 1231 536 
Q 1403 409 1656 409 
Q 1909 409 2131 539 
Q 2353 669 2445 892 
Q 2538 1116 2538 1541 
L 2538 3319 
L 3100 3319 
L 3100 0 
L 2597 0 
z
" transform="scale(0.015625)"/>
        <path id="ArialMT-70" d="M 422 -1272 
L 422 3319 
L 934 3319 
L 934 2888 
Q 1116 3141 1344 3267 
Q 1572 3394 1897 3394 
Q 2322 3394 2647 3175 
Q 2972 2956 3137 2557 
Q 3303 2159 3303 1684 
Q 3303 1175 3120 767 
Q 2938 359 2589 142 
Q 2241 -75 1856 -75 
Q 1575 -75 1351 44 
Q 1128 163 984 344 
L 984 -1272 
L 422 -1272 
z
M 931 1641 
Q 931 1000 1190 694 
Q 1450 388 1819 388 
Q 2194 388 2461 705 
Q 2728 1022 2728 1688 
Q 2728 2322 2467 2637 
Q 2206 2953 1844 2953 
Q 1484 2953 1207 2617 
Q 931 2281 931 1641 
z
" transform="scale(0.015625)"/>
        <path id="ArialMT-31" d="M 2384 0 
L 1822 0 
L 1822 3584 
Q 1619 3391 1289 3197 
Q 959 3003 697 2906 
L 697 3450 
Q 1169 3672 1522 3987 
Q 1875 4303 2022 4600 
L 2384 4600 
L 2384 0 
z
" transform="scale(0.015625)"/>
        <path id="ArialMT-20" transform="scale(0.015625)"/>
        <path id="ArialMT-28" d="M 1497 -1347 
Q 1031 -759 709 28 
Q 388 816 388 1659 
Q 388 2403 628 3084 
Q 909 3875 1497 4659 
L 1900 4659 
Q 1522 4009 1400 3731 
Q 1209 3300 1100 2831 
Q 966 2247 966 1656 
Q 966 153 1900 -1347 
L 1497 -1347 
z
" transform="scale(0.015625)"/>
        <path id="ArialMT-3c" d="M 350 2003 
L 350 2528 
L 3384 3809 
L 3384 3250 
L 978 2263 
L 3384 1266 
L 3384 706 
L 350 2003 
z
" transform="scale(0.015625)"/>
        <path id="ArialMT-30" d="M 266 2259 
Q 266 3072 433 3567 
Q 600 4063 929 4331 
Q 1259 4600 1759 4600 
Q 2128 4600 2406 4451 
Q 2684 4303 2865 4023 
Q 3047 3744 3150 3342 
Q 3253 2941 3253 2259 
Q 3253 1453 3087 958 
Q 2922 463 2592 192 
Q 2263 -78 1759 -78 
Q 1097 -78 719 397 
Q 266 969 266 2259 
z
M 844 2259 
Q 844 1131 1108 757 
Q 1372 384 1759 384 
Q 2147 384 2411 759 
Q 2675 1134 2675 2259 
Q 2675 3391 2411 3762 
Q 2147 4134 1753 4134 
Q 1366 4134 1134 3806 
Q 844 3388 844 2259 
z
" transform="scale(0.015625)"/>
        <path id="ArialMT-29" d="M 791 -1347 
L 388 -1347 
Q 1322 153 1322 1656 
Q 1322 2244 1188 2822 
Q 1081 3291 891 3722 
Q 769 4003 388 4659 
L 791 4659 
Q 1378 3875 1659 3084 
Q 1900 2403 1900 1659 
Q 1900 816 1576 28 
Q 1253 -759 791 -1347 
z
" transform="scale(0.015625)"/>
       </defs>
       <use xlink:href="#ArialMT-47"/>
       <use xlink:href="#ArialMT-72" x="77.783203"/>
       <use xlink:href="#ArialMT-6f" x="111.083984"/>
       <use xlink:href="#ArialMT-75" x="166.699219"/>
       <use xlink:href="#ArialMT-70" x="222.314453"/>
       <use xlink:href="#ArialMT-31" x="277.929688"/>
       <use xlink:href="#ArialMT-20" x="333.544922"/>
       <use xlink:href="#ArialMT-28" x="361.328125"/>
       <use xlink:href="#ArialMT-3c" x="394.628906"/>
       <use xlink:href="#ArialMT-31" x="453.027344"/>
       <use xlink:href="#ArialMT-30" x="508.642578"/>
       <use xlink:href="#ArialMT-29" x="564.257812"/>
      </g>
     </g>
    </g>
    <g id="xtick_2">
     <g id="line2d_2">
      <g>
       <use xlink:href="#m8050552385" x="157.1328" y="321.408" style="fill: #262626; stroke: #262626; stroke-width: 1.25"/>
      </g>
     </g>
     <g id="text_2">
      <!-- Group2 (10-19) -->
      <g style="fill: #262626" transform="translate(119.533425 338.915656)scale(0.11 -0.11)">
       <defs>
        <path id="ArialMT-32" d="M 3222 541 
L 3222 0 
L 194 0 
Q 188 203 259 391 
Q 375 700 629 1000 
Q 884 1300 1366 1694 
Q 2113 2306 2375 2664 
Q 2638 3022 2638 3341 
Q 2638 3675 2398 3904 
Q 2159 4134 1775 4134 
Q 1369 4134 1125 3890 
Q 881 3647 878 3216 
L 300 3275 
Q 359 3922 746 4261 
Q 1134 4600 1788 4600 
Q 2447 4600 2831 4234 
Q 3216 3869 3216 3328 
Q 3216 3053 3103 2787 
Q 2991 2522 2730 2228 
Q 2469 1934 1863 1422 
Q 1356 997 1212 845 
Q 1069 694 975 541 
L 3222 541 
z
" transform="scale(0.015625)"/>
        <path id="ArialMT-2d" d="M 203 1375 
L 203 1941 
L 1931 1941 
L 1931 1375 
L 203 1375 
z
" transform="scale(0.015625)"/>
        <path id="ArialMT-39" d="M 350 1059 
L 891 1109 
Q 959 728 1153 556 
Q 1347 384 1650 384 
Q 1909 384 2104 503 
Q 2300 622 2425 820 
Q 2550 1019 2634 1356 
Q 2719 1694 2719 2044 
Q 2719 2081 2716 2156 
Q 2547 1888 2255 1720 
Q 1963 1553 1622 1553 
Q 1053 1553 659 1965 
Q 266 2378 266 3053 
Q 266 3750 677 4175 
Q 1088 4600 1706 4600 
Q 2153 4600 2523 4359 
Q 2894 4119 3086 3673 
Q 3278 3228 3278 2384 
Q 3278 1506 3087 986 
Q 2897 466 2520 194 
Q 2144 -78 1638 -78 
Q 1100 -78 759 220 
Q 419 519 350 1059 
z
M 2653 3081 
Q 2653 3566 2395 3850 
Q 2138 4134 1775 4134 
Q 1400 4134 1122 3828 
Q 844 3522 844 3034 
Q 844 2597 1108 2323 
Q 1372 2050 1759 2050 
Q 2150 2050 2401 2323 
Q 2653 2597 2653 3081 
z
" transform="scale(0.015625)"/>
       </defs>
       <use xlink:href="#ArialMT-47"/>
       <use xlink:href="#ArialMT-72" x="77.783203"/>
       <use xlink:href="#ArialMT-6f" x="111.083984"/>
       <use xlink:href="#ArialMT-75" x="166.699219"/>
       <use xlink:href="#ArialMT-70" x="222.314453"/>
       <use xlink:href="#ArialMT-32" x="277.929688"/>
       <use xlink:href="#ArialMT-20" x="333.544922"/>
       <use xlink:href="#ArialMT-28" x="361.328125"/>
       <use xlink:href="#ArialMT-31" x="394.628906"/>
       <use xlink:href="#ArialMT-30" x="450.244141"/>
       <use xlink:href="#ArialMT-2d" x="505.859375"/>
       <use xlink:href="#ArialMT-31" x="539.160156"/>
       <use xlink:href="#ArialMT-39" x="594.775391"/>
       <use xlink:href="#ArialMT-29" x="650.390625"/>
      </g>
     </g>
    </g>
    <g id="xtick_3">
     <g id="line2d_3">
      <g>
       <use xlink:href="#m8050552385" x="237.312" y="321.408" style="fill: #262626; stroke: #262626; stroke-width: 1.25"/>
      </g>
     </g>
     <g id="text_3">
      <!-- Group3 (20-49) -->
      <g style="fill: #262626" transform="translate(199.712625 338.915656)scale(0.11 -0.11)">
       <defs>
        <path id="ArialMT-33" d="M 269 1209 
L 831 1284 
Q 928 806 1161 595 
Q 1394 384 1728 384 
Q 2125 384 2398 659 
Q 2672 934 2672 1341 
Q 2672 1728 2419 1979 
Q 2166 2231 1775 2231 
Q 1616 2231 1378 2169 
L 1441 2663 
Q 1497 2656 1531 2656 
Q 1891 2656 2178 2843 
Q 2466 3031 2466 3422 
Q 2466 3731 2256 3934 
Q 2047 4138 1716 4138 
Q 1388 4138 1169 3931 
Q 950 3725 888 3313 
L 325 3413 
Q 428 3978 793 4289 
Q 1159 4600 1703 4600 
Q 2078 4600 2393 4439 
Q 2709 4278 2876 4000 
Q 3044 3722 3044 3409 
Q 3044 3113 2884 2869 
Q 2725 2625 2413 2481 
Q 2819 2388 3044 2092 
Q 3269 1797 3269 1353 
Q 3269 753 2831 336 
Q 2394 -81 1725 -81 
Q 1122 -81 723 278 
Q 325 638 269 1209 
z
" transform="scale(0.015625)"/>
        <path id="ArialMT-34" d="M 2069 0 
L 2069 1097 
L 81 1097 
L 81 1613 
L 2172 4581 
L 2631 4581 
L 2631 1613 
L 3250 1613 
L 3250 1097 
L 2631 1097 
L 2631 0 
L 2069 0 
z
M 2069 1613 
L 2069 3678 
L 634 1613 
L 2069 1613 
z
" transform="scale(0.015625)"/>
       </defs>
       <use xlink:href="#ArialMT-47"/>
       <use xlink:href="#ArialMT-72" x="77.783203"/>
       <use xlink:href="#ArialMT-6f" x="111.083984"/>
       <use xlink:href="#ArialMT-75" x="166.699219"/>
       <use xlink:href="#ArialMT-70" x="222.314453"/>
       <use xlink:href="#ArialMT-33" x="277.929688"/>
       <use xlink:href="#ArialMT-20" x="333.544922"/>
       <use xlink:href="#ArialMT-28" x="361.328125"/>
       <use xlink:href="#ArialMT-32" x="394.628906"/>
       <use xlink:href="#ArialMT-30" x="450.244141"/>
       <use xlink:href="#ArialMT-2d" x="505.859375"/>
       <use xlink:href="#ArialMT-34" x="539.160156"/>
       <use xlink:href="#ArialMT-39" x="594.775391"/>
       <use xlink:href="#ArialMT-29" x="650.390625"/>
      </g>
     </g>
    </g>
    <g id="xtick_4">
     <g id="line2d_4">
      <g>
       <use xlink:href="#m8050552385" x="317.4912" y="321.408" style="fill: #262626; stroke: #262626; stroke-width: 1.25"/>
      </g>
     </g>
     <g id="text_4">
      <!-- Group4 (50-99) -->
      <g style="fill: #262626" transform="translate(279.891825 338.915656)scale(0.11 -0.11)">
       <defs>
        <path id="ArialMT-35" d="M 266 1200 
L 856 1250 
Q 922 819 1161 601 
Q 1400 384 1738 384 
Q 2144 384 2425 690 
Q 2706 997 2706 1503 
Q 2706 1984 2436 2262 
Q 2166 2541 1728 2541 
Q 1456 2541 1237 2417 
Q 1019 2294 894 2097 
L 366 2166 
L 809 4519 
L 3088 4519 
L 3088 3981 
L 1259 3981 
L 1013 2750 
Q 1425 3038 1878 3038 
Q 2478 3038 2890 2622 
Q 3303 2206 3303 1553 
Q 3303 931 2941 478 
Q 2500 -78 1738 -78 
Q 1113 -78 717 272 
Q 322 622 266 1200 
z
" transform="scale(0.015625)"/>
       </defs>
       <use xlink:href="#ArialMT-47"/>
       <use xlink:href="#ArialMT-72" x="77.783203"/>
       <use xlink:href="#ArialMT-6f" x="111.083984"/>
       <use xlink:href="#ArialMT-75" x="166.699219"/>
       <use xlink:href="#ArialMT-70" x="222.314453"/>
       <use xlink:href="#ArialMT-34" x="277.929688"/>
       <use xlink:href="#ArialMT-20" x="333.544922"/>
       <use xlink:href="#ArialMT-28" x="361.328125"/>
       <use xlink:href="#ArialMT-35" x="394.628906"/>
       <use xlink:href="#ArialMT-30" x="450.244141"/>
       <use xlink:href="#ArialMT-2d" x="505.859375"/>
       <use xlink:href="#ArialMT-39" x="539.160156"/>
       <use xlink:href="#ArialMT-39" x="594.775391"/>
       <use xlink:href="#ArialMT-29" x="650.390625"/>
      </g>
     </g>
    </g>
    <g id="xtick_5">
     <g id="line2d_5">
      <g>
       <use xlink:href="#m8050552385" x="397.6704" y="321.408" style="fill: #262626; stroke: #262626; stroke-width: 1.25"/>
      </g>
     </g>
     <g id="text_5">
      <!-- Group5 (≥100) -->
      <g style="fill: #262626" transform="translate(361.941884 338.915656)scale(0.11 -0.11)">
       <defs>
        <path id="ArialMT-2265" d="M 3275 2381 
L 241 1084 
L 241 1644 
L 2644 2641 
L 241 3625 
L 241 4188 
L 3275 2906 
L 3275 2381 
z
M 3269 331 
L 244 331 
L 244 853 
L 3269 853 
L 3269 331 
z
" transform="scale(0.015625)"/>
       </defs>
       <use xlink:href="#ArialMT-47"/>
       <use xlink:href="#ArialMT-72" x="77.783203"/>
       <use xlink:href="#ArialMT-6f" x="111.083984"/>
       <use xlink:href="#ArialMT-75" x="166.699219"/>
       <use xlink:href="#ArialMT-70" x="222.314453"/>
       <use xlink:href="#ArialMT-35" x="277.929688"/>
       <use xlink:href="#ArialMT-20" x="333.544922"/>
       <use xlink:href="#ArialMT-28" x="361.328125"/>
       <use xlink:href="#ArialMT-2265" x="394.628906"/>
       <use xlink:href="#ArialMT-31" x="449.511719"/>
       <use xlink:href="#ArialMT-30" x="505.126953"/>
       <use xlink:href="#ArialMT-30" x="560.742188"/>
       <use xlink:href="#ArialMT-29" x="616.357422"/>
      </g>
     </g>
    </g>
    <g id="text_6">
     <!-- Group -->
     <g style="fill: #262626" transform="translate(220.637625 353.966437)scale(0.12 -0.12)">
      <use xlink:href="#ArialMT-47"/>
      <use xlink:href="#ArialMT-72" x="77.783203"/>
      <use xlink:href="#ArialMT-6f" x="111.083984"/>
      <use xlink:href="#ArialMT-75" x="166.699219"/>
      <use xlink:href="#ArialMT-70" x="222.314453"/>
     </g>
    </g>
   </g>
   <g id="matplotlib.axis_2">
    <g id="ytick_1">
     <g id="line2d_6">
      <defs>
       <path id="mf75e068b37" d="M 0 0 
L -6 0 
" style="stroke: #262626; stroke-width: 1.25"/>
      </defs>
      <g>
       <use xlink:href="#mf75e068b37" x="36.864" y="303.612181" style="fill: #262626; stroke: #262626; stroke-width: 1.25"/>
      </g>
     </g>
     <g id="text_7">
      <!-- 2000 -->
      <g style="fill: #262626" transform="translate(2.895875 307.548978)scale(0.11 -0.11)">
       <use xlink:href="#ArialMT-32"/>
       <use xlink:href="#ArialMT-30" x="55.615234"/>
       <use xlink:href="#ArialMT-30" x="111.230469"/>
       <use xlink:href="#ArialMT-30" x="166.845703"/>
      </g>
     </g>
    </g>
    <g id="ytick_2">
     <g id="line2d_7">
      <g>
       <use xlink:href="#mf75e068b37" x="36.864" y="262.042878" style="fill: #262626; stroke: #262626; stroke-width: 1.25"/>
      </g>
     </g>
     <g id="text_8">
      <!-- 2500 -->
      <g style="fill: #262626" transform="translate(2.895875 265.979675)scale(0.11 -0.11)">
       <use xlink:href="#ArialMT-32"/>
       <use xlink:href="#ArialMT-35" x="55.615234"/>
       <use xlink:href="#ArialMT-30" x="111.230469"/>
       <use xlink:href="#ArialMT-30" x="166.845703"/>
      </g>
     </g>
    </g>
    <g id="ytick_3">
     <g id="line2d_8">
      <g>
       <use xlink:href="#mf75e068b37" x="36.864" y="220.473575" style="fill: #262626; stroke: #262626; stroke-width: 1.25"/>
      </g>
     </g>
     <g id="text_9">
      <!-- 3000 -->
      <g style="fill: #262626" transform="translate(2.895875 224.410372)scale(0.11 -0.11)">
       <use xlink:href="#ArialMT-33"/>
       <use xlink:href="#ArialMT-30" x="55.615234"/>
       <use xlink:href="#ArialMT-30" x="111.230469"/>
       <use xlink:href="#ArialMT-30" x="166.845703"/>
      </g>
     </g>
    </g>
    <g id="ytick_4">
     <g id="line2d_9">
      <g>
       <use xlink:href="#mf75e068b37" x="36.864" y="178.904273" style="fill: #262626; stroke: #262626; stroke-width: 1.25"/>
      </g>
     </g>
     <g id="text_10">
      <!-- 3500 -->
      <g style="fill: #262626" transform="translate(2.895875 182.841069)scale(0.11 -0.11)">
       <use xlink:href="#ArialMT-33"/>
       <use xlink:href="#ArialMT-35" x="55.615234"/>
       <use xlink:href="#ArialMT-30" x="111.230469"/>
       <use xlink:href="#ArialMT-30" x="166.845703"/>
      </g>
     </g>
    </g>
    <g id="ytick_5">
     <g id="line2d_10">
      <g>
       <use xlink:href="#mf75e068b37" x="36.864" y="137.33497" style="fill: #262626; stroke: #262626; stroke-width: 1.25"/>
      </g>
     </g>
     <g id="text_11">
      <!-- 4000 -->
      <g style="fill: #262626" transform="translate(2.895875 141.271766)scale(0.11 -0.11)">
       <use xlink:href="#ArialMT-34"/>
       <use xlink:href="#ArialMT-30" x="55.615234"/>
       <use xlink:href="#ArialMT-30" x="111.230469"/>
       <use xlink:href="#ArialMT-30" x="166.845703"/>
      </g>
     </g>
    </g>
    <g id="ytick_6">
     <g id="line2d_11">
      <g>
       <use xlink:href="#mf75e068b37" x="36.864" y="95.765667" style="fill: #262626; stroke: #262626; stroke-width: 1.25"/>
      </g>
     </g>
     <g id="text_12">
      <!-- 4500 -->
      <g style="fill: #262626" transform="translate(2.895875 99.702463)scale(0.11 -0.11)">
       <use xlink:href="#ArialMT-34"/>
       <use xlink:href="#ArialMT-35" x="55.615234"/>
       <use xlink:href="#ArialMT-30" x="111.230469"/>
       <use xlink:href="#ArialMT-30" x="166.845703"/>
      </g>
     </g>
    </g>
    <g id="ytick_7">
     <g id="line2d_12">
      <g>
       <use xlink:href="#mf75e068b37" x="36.864" y="54.196364" style="fill: #262626; stroke: #262626; stroke-width: 1.25"/>
      </g>
     </g>
     <g id="text_13">
      <!-- 5000 -->
      <g style="fill: #262626" transform="translate(2.895875 58.133161)scale(0.11 -0.11)">
       <use xlink:href="#ArialMT-35"/>
       <use xlink:href="#ArialMT-30" x="55.615234"/>
       <use xlink:href="#ArialMT-30" x="111.230469"/>
       <use xlink:href="#ArialMT-30" x="166.845703"/>
      </g>
     </g>
    </g>
    <g id="text_14">
     <!-- Price -->
     <g style="fill: #262626" transform="translate(-3.489125 195.109688)rotate(-90)scale(0.12 -0.12)">
      <defs>
       <path id="ArialMT-50" d="M 494 0 
L 494 4581 
L 2222 4581 
Q 2678 4581 2919 4538 
Q 3256 4481 3484 4323 
Q 3713 4166 3852 3881 
Q 3991 3597 3991 3256 
Q 3991 2672 3619 2267 
Q 3247 1863 2275 1863 
L 1100 1863 
L 1100 0 
L 494 0 
z
M 1100 2403 
L 2284 2403 
Q 2872 2403 3119 2622 
Q 3366 2841 3366 3238 
Q 3366 3525 3220 3729 
Q 3075 3934 2838 4000 
Q 2684 4041 2272 4041 
L 1100 4041 
L 1100 2403 
z
" transform="scale(0.015625)"/>
       <path id="ArialMT-69" d="M 425 3934 
L 425 4581 
L 988 4581 
L 988 3934 
L 425 3934 
z
M 425 0 
L 425 3319 
L 988 3319 
L 988 0 
L 425 0 
z
" transform="scale(0.015625)"/>
       <path id="ArialMT-63" d="M 2588 1216 
L 3141 1144 
Q 3050 572 2676 248 
Q 2303 -75 1759 -75 
Q 1078 -75 664 370 
Q 250 816 250 1647 
Q 250 2184 428 2587 
Q 606 2991 970 3192 
Q 1334 3394 1763 3394 
Q 2303 3394 2647 3120 
Q 2991 2847 3088 2344 
L 2541 2259 
Q 2463 2594 2264 2762 
Q 2066 2931 1784 2931 
Q 1359 2931 1093 2626 
Q 828 2322 828 1663 
Q 828 994 1084 691 
Q 1341 388 1753 388 
Q 2084 388 2306 591 
Q 2528 794 2588 1216 
z
" transform="scale(0.015625)"/>
       <path id="ArialMT-65" d="M 2694 1069 
L 3275 997 
Q 3138 488 2766 206 
Q 2394 -75 1816 -75 
Q 1088 -75 661 373 
Q 234 822 234 1631 
Q 234 2469 665 2931 
Q 1097 3394 1784 3394 
Q 2450 3394 2872 2941 
Q 3294 2488 3294 1666 
Q 3294 1616 3291 1516 
L 816 1516 
Q 847 969 1125 678 
Q 1403 388 1819 388 
Q 2128 388 2347 550 
Q 2566 713 2694 1069 
z
M 847 1978 
L 2700 1978 
Q 2663 2397 2488 2606 
Q 2219 2931 1791 2931 
Q 1403 2931 1139 2672 
Q 875 2413 847 1978 
z
" transform="scale(0.015625)"/>
      </defs>
      <use xlink:href="#ArialMT-50"/>
      <use xlink:href="#ArialMT-72" x="66.699219"/>
      <use xlink:href="#ArialMT-69" x="100"/>
      <use xlink:href="#ArialMT-63" x="122.216797"/>
      <use xlink:href="#ArialMT-65" x="172.216797"/>
     </g>
    </g>
   </g>
   <g id="line2d_13">
    <path d="M 76.9536 272.10265 
L 157.1328 271.770095 
L 237.312 297.792479 
L 317.4912 308.683636 
L 397.6704 305.524369 
" clip-path="url(#p04c23c9dd5)" style="fill: none; stroke: #e5d7c2; stroke-width: 3; stroke-linecap: round"/>
   </g>
   <g id="line2d_14">
    <path clip-path="url(#p04c23c9dd5)" style="fill: none; stroke: #e5d7c2; stroke-width: 3; stroke-linecap: round"/>
   </g>
   <g id="line2d_15">
    <path clip-path="url(#p04c23c9dd5)" style="fill: none; stroke: #e5d7c2; stroke-width: 3; stroke-linecap: round"/>
   </g>
   <g id="line2d_16">
    <path clip-path="url(#p04c23c9dd5)" style="fill: none; stroke: #e5d7c2; stroke-width: 3; stroke-linecap: round"/>
   </g>
   <g id="line2d_17">
    <path clip-path="url(#p04c23c9dd5)" style="fill: none; stroke: #e5d7c2; stroke-width: 3; stroke-linecap: round"/>
   </g>
   <g id="line2d_18">
    <path clip-path="url(#p04c23c9dd5)" style="fill: none; stroke: #e5d7c2; stroke-width: 3; stroke-linecap: round"/>
   </g>
   <g id="PathCollection_1">
    <defs>
     <path id="mfc656f6c91" d="M 0 2.030369 
C 0.53846 2.030369 1.054939 1.816436 1.435688 1.435688 
C 1.816436 1.054939 2.030369 0.53846 2.030369 0 
C 2.030369 -0.53846 1.816436 -1.054939 1.435688 -1.435688 
C 1.054939 -1.816436 0.53846 -2.030369 0 -2.030369 
C -0.53846 -2.030369 -1.054939 -1.816436 -1.435688 -1.435688 
C -1.816436 -1.054939 -2.030369 -0.53846 -2.030369 0 
C -2.030369 0.53846 -1.816436 1.054939 -1.435688 1.435688 
C -1.054939 1.816436 -0.53846 2.030369 0 2.030369 
z
" style="stroke: #e5d7c2; stroke-width: 1.215"/>
    </defs>
    <g clip-path="url(#p04c23c9dd5)">
     <use xlink:href="#mfc656f6c91" x="76.9536" y="272.10265" style="fill: #e5d7c2; stroke: #e5d7c2; stroke-width: 1.215"/>
     <use xlink:href="#mfc656f6c91" x="157.1328" y="271.770095" style="fill: #e5d7c2; stroke: #e5d7c2; stroke-width: 1.215"/>
     <use xlink:href="#mfc656f6c91" x="237.312" y="297.792479" style="fill: #e5d7c2; stroke: #e5d7c2; stroke-width: 1.215"/>
     <use xlink:href="#mfc656f6c91" x="317.4912" y="308.683636" style="fill: #e5d7c2; stroke: #e5d7c2; stroke-width: 1.215"/>
     <use xlink:href="#mfc656f6c91" x="397.6704" y="305.524369" style="fill: #e5d7c2; stroke: #e5d7c2; stroke-width: 1.215"/>
    </g>
   </g>
   <g id="line2d_19">
    <path d="M 76.9536 246.994791 
L 157.1328 264.287621 
L 237.312 297.543063 
L 317.4912 301.034885 
L 397.6704 308.184805 
" clip-path="url(#p04c23c9dd5)" style="fill: none; stroke: #d3ab99; stroke-width: 3; stroke-linecap: round"/>
   </g>
   <g id="line2d_20">
    <path clip-path="url(#p04c23c9dd5)" style="fill: none; stroke: #d3ab99; stroke-width: 2.7; stroke-linecap: round"/>
   </g>
   <g id="line2d_21">
    <path clip-path="url(#p04c23c9dd5)" style="fill: none; stroke: #d3ab99; stroke-width: 2.7; stroke-linecap: round"/>
   </g>
   <g id="line2d_22">
    <path clip-path="url(#p04c23c9dd5)" style="fill: none; stroke: #d3ab99; stroke-width: 2.7; stroke-linecap: round"/>
   </g>
   <g id="line2d_23">
    <path clip-path="url(#p04c23c9dd5)" style="fill: none; stroke: #d3ab99; stroke-width: 2.7; stroke-linecap: round"/>
   </g>
   <g id="line2d_24">
    <path clip-path="url(#p04c23c9dd5)" style="fill: none; stroke: #d3ab99; stroke-width: 2.7; stroke-linecap: round"/>
   </g>
   <g id="PathCollection_2">
    <defs>
     <path id="mf1082927ba" d="M 0 2.030369 
C 0.53846 2.030369 1.054939 1.816436 1.435688 1.435688 
C 1.816436 1.054939 2.030369 0.53846 2.030369 0 
C 2.030369 -0.53846 1.816436 -1.054939 1.435688 -1.435688 
C 1.054939 -1.816436 0.53846 -2.030369 0 -2.030369 
C -0.53846 -2.030369 -1.054939 -1.816436 -1.435688 -1.435688 
C -1.816436 -1.054939 -2.030369 -0.53846 -2.030369 0 
C -2.030369 0.53846 -1.816436 1.054939 -1.435688 1.435688 
C -1.054939 1.816436 -0.53846 2.030369 0 2.030369 
z
" style="stroke: #d3ab99; stroke-width: 1.215"/>
    </defs>
    <g clip-path="url(#p04c23c9dd5)">
     <use xlink:href="#mf1082927ba" x="76.9536" y="246.994791" style="fill: #d3ab99; stroke: #d3ab99; stroke-width: 1.215"/>
     <use xlink:href="#mf1082927ba" x="157.1328" y="264.287621" style="fill: #d3ab99; stroke: #d3ab99; stroke-width: 1.215"/>
     <use xlink:href="#mf1082927ba" x="237.312" y="297.543063" style="fill: #d3ab99; stroke: #d3ab99; stroke-width: 1.215"/>
     <use xlink:href="#mf1082927ba" x="317.4912" y="301.034885" style="fill: #d3ab99; stroke: #d3ab99; stroke-width: 1.215"/>
     <use xlink:href="#mf1082927ba" x="397.6704" y="308.184805" style="fill: #d3ab99; stroke: #d3ab99; stroke-width: 1.215"/>
    </g>
   </g>
   <g id="patch_3">
    <path d="M 36.864 321.408 
L 36.864 41.472 
" style="fill: none; stroke: #262626; stroke-width: 1.25; stroke-linejoin: miter; stroke-linecap: square"/>
   </g>
   <g id="patch_4">
    <path d="M 36.864 321.408 
L 437.76 321.408 
" style="fill: none; stroke: #262626; stroke-width: 1.25; stroke-linejoin: miter; stroke-linecap: square"/>
   </g>
   <g id="line2d_25">
    <path d="M 76.9536 217.81314 
L 157.1328 260.047552 
L 237.312 289.478618 
L 317.4912 290.060589 
L 397.6704 289.97745 
" clip-path="url(#p04c23c9dd5)" style="fill: none; stroke: #bc7f7f; stroke-width: 1.62; stroke-linecap: round"/>
   </g>
   <g id="line2d_26">
    <path clip-path="url(#p04c23c9dd5)" style="fill: none; stroke: #bc7f7f; stroke-width: 2.7; stroke-linecap: round"/>
   </g>
   <g id="line2d_27">
    <path clip-path="url(#p04c23c9dd5)" style="fill: none; stroke: #bc7f7f; stroke-width: 2.7; stroke-linecap: round"/>
   </g>
   <g id="line2d_28">
    <path clip-path="url(#p04c23c9dd5)" style="fill: none; stroke: #bc7f7f; stroke-width: 2.7; stroke-linecap: round"/>
   </g>
   <g id="line2d_29">
    <path clip-path="url(#p04c23c9dd5)" style="fill: none; stroke: #bc7f7f; stroke-width: 2.7; stroke-linecap: round"/>
   </g>
   <g id="line2d_30">
    <path clip-path="url(#p04c23c9dd5)" style="fill: none; stroke: #bc7f7f; stroke-width: 2.7; stroke-linecap: round"/>
   </g>
   <g id="PathCollection_3">
    <defs>
     <path id="m27b34db9d7" d="M 0 2.030369 
C 0.53846 2.030369 1.054939 1.816436 1.435688 1.435688 
C 1.816436 1.054939 2.030369 0.53846 2.030369 0 
C 2.030369 -0.53846 1.816436 -1.054939 1.435688 -1.435688 
C 1.054939 -1.816436 0.53846 -2.030369 0 -2.030369 
C -0.53846 -2.030369 -1.054939 -1.816436 -1.435688 -1.435688 
C -1.816436 -1.054939 -2.030369 -0.53846 -2.030369 0 
C -2.030369 0.53846 -1.816436 1.054939 -1.435688 1.435688 
C -1.054939 1.816436 -0.53846 2.030369 0 2.030369 
z
" style="stroke: #bc7f7f; stroke-width: 1.215"/>
    </defs>
    <g clip-path="url(#p04c23c9dd5)">
     <use xlink:href="#m27b34db9d7" x="76.9536" y="217.81314" style="fill: #bc7f7f; stroke: #bc7f7f; stroke-width: 1.215"/>
     <use xlink:href="#m27b34db9d7" x="157.1328" y="260.047552" style="fill: #bc7f7f; stroke: #bc7f7f; stroke-width: 1.215"/>
     <use xlink:href="#m27b34db9d7" x="237.312" y="289.478618" style="fill: #bc7f7f; stroke: #bc7f7f; stroke-width: 1.215"/>
     <use xlink:href="#m27b34db9d7" x="317.4912" y="290.060589" style="fill: #bc7f7f; stroke: #bc7f7f; stroke-width: 1.215"/>
     <use xlink:href="#m27b34db9d7" x="397.6704" y="289.97745" style="fill: #bc7f7f; stroke: #bc7f7f; stroke-width: 1.215"/>
    </g>
   </g>
   <g id="line2d_31">
    <path d="M 76.9536 97.012746 
L 157.1328 264.869591 
L 237.312 289.312341 
L 317.4912 290.060589 
L 397.6704 289.97745 
" clip-path="url(#p04c23c9dd5)" style="fill: none; stroke-dasharray: 10.368,2.592,1.62,2.592; stroke-dashoffset: 0; stroke: #9b586c; stroke-width: 1.62"/>
   </g>
   <g id="line2d_32">
    <path clip-path="url(#p04c23c9dd5)" style="fill: none; stroke: #9b586c; stroke-width: 2.7; stroke-linecap: round"/>
   </g>
   <g id="line2d_33">
    <path clip-path="url(#p04c23c9dd5)" style="fill: none; stroke: #9b586c; stroke-width: 2.7; stroke-linecap: round"/>
   </g>
   <g id="line2d_34">
    <path clip-path="url(#p04c23c9dd5)" style="fill: none; stroke: #9b586c; stroke-width: 2.7; stroke-linecap: round"/>
   </g>
   <g id="line2d_35">
    <path clip-path="url(#p04c23c9dd5)" style="fill: none; stroke: #9b586c; stroke-width: 2.7; stroke-linecap: round"/>
   </g>
   <g id="line2d_36">
    <path clip-path="url(#p04c23c9dd5)" style="fill: none; stroke: #9b586c; stroke-width: 2.7; stroke-linecap: round"/>
   </g>
   <g id="PathCollection_4">
    <defs>
     <path id="m16c61072b3" d="M 0 2.030369 
C 0.53846 2.030369 1.054939 1.816436 1.435688 1.435688 
C 1.816436 1.054939 2.030369 0.53846 2.030369 0 
C 2.030369 -0.53846 1.816436 -1.054939 1.435688 -1.435688 
C 1.054939 -1.816436 0.53846 -2.030369 0 -2.030369 
C -0.53846 -2.030369 -1.054939 -1.816436 -1.435688 -1.435688 
C -1.816436 -1.054939 -2.030369 -0.53846 -2.030369 0 
C -2.030369 0.53846 -1.816436 1.054939 -1.435688 1.435688 
C -1.054939 1.816436 -0.53846 2.030369 0 2.030369 
z
" style="stroke: #9b586c; stroke-width: 1.215"/>
    </defs>
    <g clip-path="url(#p04c23c9dd5)">
     <use xlink:href="#m16c61072b3" x="76.9536" y="97.012746" style="fill: #9b586c; stroke: #9b586c; stroke-width: 1.215"/>
     <use xlink:href="#m16c61072b3" x="157.1328" y="264.869591" style="fill: #9b586c; stroke: #9b586c; stroke-width: 1.215"/>
     <use xlink:href="#m16c61072b3" x="237.312" y="289.312341" style="fill: #9b586c; stroke: #9b586c; stroke-width: 1.215"/>
     <use xlink:href="#m16c61072b3" x="317.4912" y="290.060589" style="fill: #9b586c; stroke: #9b586c; stroke-width: 1.215"/>
     <use xlink:href="#m16c61072b3" x="397.6704" y="289.97745" style="fill: #9b586c; stroke: #9b586c; stroke-width: 1.215"/>
    </g>
   </g>
   <g id="line2d_37">
    <path d="M 76.9536 54.196364 
L 157.1328 250.237196 
L 237.312 281.331035 
L 317.4912 290.060589 
L 397.6704 289.97745 
" clip-path="url(#p04c23c9dd5)" style="fill: none; stroke-dasharray: 5.994,2.592; stroke-dashoffset: 0; stroke: #6d3657; stroke-width: 1.62"/>
   </g>
   <g id="line2d_38">
    <path clip-path="url(#p04c23c9dd5)" style="fill: none; stroke: #6d3657; stroke-width: 2.7; stroke-linecap: round"/>
   </g>
   <g id="line2d_39">
    <path clip-path="url(#p04c23c9dd5)" style="fill: none; stroke: #6d3657; stroke-width: 2.7; stroke-linecap: round"/>
   </g>
   <g id="line2d_40">
    <path clip-path="url(#p04c23c9dd5)" style="fill: none; stroke: #6d3657; stroke-width: 2.7; stroke-linecap: round"/>
   </g>
   <g id="line2d_41">
    <path clip-path="url(#p04c23c9dd5)" style="fill: none; stroke: #6d3657; stroke-width: 2.7; stroke-linecap: round"/>
   </g>
   <g id="line2d_42">
    <path clip-path="url(#p04c23c9dd5)" style="fill: none; stroke: #6d3657; stroke-width: 2.7; stroke-linecap: round"/>
   </g>
   <g id="PathCollection_5">
    <defs>
     <path id="m2371628b3f" d="M 0 2.030369 
C 0.53846 2.030369 1.054939 1.816436 1.435688 1.435688 
C 1.816436 1.054939 2.030369 0.53846 2.030369 0 
C 2.030369 -0.53846 1.816436 -1.054939 1.435688 -1.435688 
C 1.054939 -1.816436 0.53846 -2.030369 0 -2.030369 
C -0.53846 -2.030369 -1.054939 -1.816436 -1.435688 -1.435688 
C -1.816436 -1.054939 -2.030369 -0.53846 -2.030369 0 
C -2.030369 0.53846 -1.816436 1.054939 -1.435688 1.435688 
C -1.054939 1.816436 -0.53846 2.030369 0 2.030369 
z
" style="stroke: #6d3657; stroke-width: 1.215"/>
    </defs>
    <g clip-path="url(#p04c23c9dd5)">
     <use xlink:href="#m2371628b3f" x="76.9536" y="54.196364" style="fill: #6d3657; stroke: #6d3657; stroke-width: 1.215"/>
     <use xlink:href="#m2371628b3f" x="157.1328" y="250.237196" style="fill: #6d3657; stroke: #6d3657; stroke-width: 1.215"/>
     <use xlink:href="#m2371628b3f" x="237.312" y="281.331035" style="fill: #6d3657; stroke: #6d3657; stroke-width: 1.215"/>
     <use xlink:href="#m2371628b3f" x="317.4912" y="290.060589" style="fill: #6d3657; stroke: #6d3657; stroke-width: 1.215"/>
     <use xlink:href="#m2371628b3f" x="397.6704" y="289.97745" style="fill: #6d3657; stroke: #6d3657; stroke-width: 1.215"/>
    </g>
   </g>
   <g id="legend_1">
    <g id="patch_5">
     <path d="M 367.36 160.285906 
L 430.06 160.285906 
Q 432.26 160.285906 432.26 158.085906 
L 432.26 49.172 
Q 432.26 46.972 430.06 46.972 
L 367.36 46.972 
Q 365.16 46.972 365.16 49.172 
L 365.16 158.085906 
Q 365.16 160.285906 367.36 160.285906 
z
" style="fill: #ffffff; opacity: 0.8; stroke: #cccccc; stroke-linejoin: miter"/>
    </g>
    <g id="text_15">
     <!-- Cost -->
     <g style="fill: #262626" transform="translate(386.373437 59.961375)scale(0.12 -0.12)">
      <defs>
       <path id="ArialMT-43" d="M 3763 1606 
L 4369 1453 
Q 4178 706 3683 314 
Q 3188 -78 2472 -78 
Q 1731 -78 1267 223 
Q 803 525 561 1097 
Q 319 1669 319 2325 
Q 319 3041 592 3573 
Q 866 4106 1370 4382 
Q 1875 4659 2481 4659 
Q 3169 4659 3637 4309 
Q 4106 3959 4291 3325 
L 3694 3184 
Q 3534 3684 3231 3912 
Q 2928 4141 2469 4141 
Q 1941 4141 1586 3887 
Q 1231 3634 1087 3207 
Q 944 2781 944 2328 
Q 944 1744 1114 1308 
Q 1284 872 1643 656 
Q 2003 441 2422 441 
Q 2931 441 3284 734 
Q 3638 1028 3763 1606 
z
" transform="scale(0.015625)"/>
       <path id="ArialMT-73" d="M 197 991 
L 753 1078 
Q 800 744 1014 566 
Q 1228 388 1613 388 
Q 2000 388 2187 545 
Q 2375 703 2375 916 
Q 2375 1106 2209 1216 
Q 2094 1291 1634 1406 
Q 1016 1563 777 1677 
Q 538 1791 414 1992 
Q 291 2194 291 2438 
Q 291 2659 392 2848 
Q 494 3038 669 3163 
Q 800 3259 1026 3326 
Q 1253 3394 1513 3394 
Q 1903 3394 2198 3281 
Q 2494 3169 2634 2976 
Q 2775 2784 2828 2463 
L 2278 2388 
Q 2241 2644 2061 2787 
Q 1881 2931 1553 2931 
Q 1166 2931 1000 2803 
Q 834 2675 834 2503 
Q 834 2394 903 2306 
Q 972 2216 1119 2156 
Q 1203 2125 1616 2013 
Q 2213 1853 2448 1751 
Q 2684 1650 2818 1456 
Q 2953 1263 2953 975 
Q 2953 694 2789 445 
Q 2625 197 2315 61 
Q 2006 -75 1616 -75 
Q 969 -75 630 194 
Q 291 463 197 991 
z
" transform="scale(0.015625)"/>
       <path id="ArialMT-74" d="M 1650 503 
L 1731 6 
Q 1494 -44 1306 -44 
Q 1000 -44 831 53 
Q 663 150 594 308 
Q 525 466 525 972 
L 525 2881 
L 113 2881 
L 113 3319 
L 525 3319 
L 525 4141 
L 1084 4478 
L 1084 3319 
L 1650 3319 
L 1650 2881 
L 1084 2881 
L 1084 941 
Q 1084 700 1114 631 
Q 1144 563 1211 522 
Q 1278 481 1403 481 
Q 1497 481 1650 503 
z
" transform="scale(0.015625)"/>
      </defs>
      <use xlink:href="#ArialMT-43"/>
      <use xlink:href="#ArialMT-6f" x="72.216797"/>
      <use xlink:href="#ArialMT-73" x="127.832031"/>
      <use xlink:href="#ArialMT-74" x="177.832031"/>
     </g>
    </g>
    <g id="PathCollection_6">
     <g>
      <use xlink:href="#mfc656f6c91" x="380.56" y="72.892625" style="fill: #e5d7c2; stroke: #e5d7c2; stroke-width: 1.215"/>
     </g>
    </g>
    <g id="text_16">
     <!-- $c_1 × 0$ -->
     <g style="fill: #262626" transform="translate(400.36 75.780125)scale(0.11 -0.11)">
      <defs>
       <path id="DejaVuSans-Oblique-63" d="M 3431 3366 
L 3316 2797 
Q 3109 2947 2876 3022 
Q 2644 3097 2394 3097 
Q 2119 3097 1870 3000 
Q 1622 2903 1453 2725 
Q 1184 2453 1037 2087 
Q 891 1722 891 1331 
Q 891 859 1127 628 
Q 1363 397 1844 397 
Q 2081 397 2348 469 
Q 2616 541 2906 684 
L 2797 116 
Q 2547 13 2283 -39 
Q 2019 -91 1741 -91 
Q 1044 -91 669 257 
Q 294 606 294 1253 
Q 294 1797 489 2255 
Q 684 2713 1069 3078 
Q 1331 3328 1684 3456 
Q 2038 3584 2456 3584 
Q 2700 3584 2940 3529 
Q 3181 3475 3431 3366 
z
" transform="scale(0.015625)"/>
       <path id="DejaVuSans-31" d="M 794 531 
L 1825 531 
L 1825 4091 
L 703 3866 
L 703 4441 
L 1819 4666 
L 2450 4666 
L 2450 531 
L 3481 531 
L 3481 0 
L 794 0 
L 794 531 
z
" transform="scale(0.015625)"/>
       <path id="DejaVuSans-d7" d="M 4488 3438 
L 3059 2003 
L 4488 575 
L 4116 197 
L 2681 1631 
L 1247 197 
L 878 575 
L 2303 2003 
L 878 3438 
L 1247 3816 
L 2681 2381 
L 4116 3816 
L 4488 3438 
z
" transform="scale(0.015625)"/>
       <path id="DejaVuSans-30" d="M 2034 4250 
Q 1547 4250 1301 3770 
Q 1056 3291 1056 2328 
Q 1056 1369 1301 889 
Q 1547 409 2034 409 
Q 2525 409 2770 889 
Q 3016 1369 3016 2328 
Q 3016 3291 2770 3770 
Q 2525 4250 2034 4250 
z
M 2034 4750 
Q 2819 4750 3233 4129 
Q 3647 3509 3647 2328 
Q 3647 1150 3233 529 
Q 2819 -91 2034 -91 
Q 1250 -91 836 529 
Q 422 1150 422 2328 
Q 422 3509 836 4129 
Q 1250 4750 2034 4750 
z
" transform="scale(0.015625)"/>
      </defs>
      <use xlink:href="#DejaVuSans-Oblique-63" transform="translate(0 0.78125)"/>
      <use xlink:href="#DejaVuSans-31" transform="translate(54.980469 -15.625)scale(0.7)"/>
      <use xlink:href="#DejaVuSans-d7" transform="translate(102.250977 0.78125)"/>
      <use xlink:href="#DejaVuSans-30" transform="translate(186.040039 0.78125)"/>
     </g>
    </g>
    <g id="PathCollection_7">
     <g>
      <use xlink:href="#mf1082927ba" x="380.56" y="88.452469" style="fill: #d3ab99; stroke: #d3ab99; stroke-width: 1.215"/>
     </g>
    </g>
    <g id="text_17">
     <!-- $c_1$ -->
     <g style="fill: #262626" transform="translate(400.36 91.339969)scale(0.11 -0.11)">
      <use xlink:href="#DejaVuSans-Oblique-63"/>
      <use xlink:href="#DejaVuSans-31" transform="translate(54.980469 -16.40625)scale(0.7)"/>
     </g>
    </g>
    <g id="PathCollection_8">
     <g>
      <use xlink:href="#m27b34db9d7" x="380.56" y="104.072469" style="fill: #bc7f7f; stroke: #bc7f7f; stroke-width: 1.215"/>
     </g>
    </g>
    <g id="text_18">
     <!-- $c_1 × 2$ -->
     <g style="fill: #262626" transform="translate(400.36 106.959969)scale(0.11 -0.11)">
      <defs>
       <path id="DejaVuSans-32" d="M 1228 531 
L 3431 531 
L 3431 0 
L 469 0 
L 469 531 
Q 828 903 1448 1529 
Q 2069 2156 2228 2338 
Q 2531 2678 2651 2914 
Q 2772 3150 2772 3378 
Q 2772 3750 2511 3984 
Q 2250 4219 1831 4219 
Q 1534 4219 1204 4116 
Q 875 4013 500 3803 
L 500 4441 
Q 881 4594 1212 4672 
Q 1544 4750 1819 4750 
Q 2544 4750 2975 4387 
Q 3406 4025 3406 3419 
Q 3406 3131 3298 2873 
Q 3191 2616 2906 2266 
Q 2828 2175 2409 1742 
Q 1991 1309 1228 531 
z
" transform="scale(0.015625)"/>
      </defs>
      <use xlink:href="#DejaVuSans-Oblique-63" transform="translate(0 0.78125)"/>
      <use xlink:href="#DejaVuSans-31" transform="translate(54.980469 -15.625)scale(0.7)"/>
      <use xlink:href="#DejaVuSans-d7" transform="translate(102.250977 0.78125)"/>
      <use xlink:href="#DejaVuSans-32" transform="translate(186.040039 0.78125)"/>
     </g>
    </g>
    <g id="PathCollection_9">
     <g>
      <use xlink:href="#m16c61072b3" x="380.56" y="119.692469" style="fill: #9b586c; stroke: #9b586c; stroke-width: 1.215"/>
     </g>
    </g>
    <g id="text_19">
     <!-- $c_1 × 3$ -->
     <g style="fill: #262626" transform="translate(400.36 122.579969)scale(0.11 -0.11)">
      <defs>
       <path id="DejaVuSans-33" d="M 2597 2516 
Q 3050 2419 3304 2112 
Q 3559 1806 3559 1356 
Q 3559 666 3084 287 
Q 2609 -91 1734 -91 
Q 1441 -91 1130 -33 
Q 819 25 488 141 
L 488 750 
Q 750 597 1062 519 
Q 1375 441 1716 441 
Q 2309 441 2620 675 
Q 2931 909 2931 1356 
Q 2931 1769 2642 2001 
Q 2353 2234 1838 2234 
L 1294 2234 
L 1294 2753 
L 1863 2753 
Q 2328 2753 2575 2939 
Q 2822 3125 2822 3475 
Q 2822 3834 2567 4026 
Q 2313 4219 1838 4219 
Q 1578 4219 1281 4162 
Q 984 4106 628 3988 
L 628 4550 
Q 988 4650 1302 4700 
Q 1616 4750 1894 4750 
Q 2613 4750 3031 4423 
Q 3450 4097 3450 3541 
Q 3450 3153 3228 2886 
Q 3006 2619 2597 2516 
z
" transform="scale(0.015625)"/>
      </defs>
      <use xlink:href="#DejaVuSans-Oblique-63" transform="translate(0 0.78125)"/>
      <use xlink:href="#DejaVuSans-31" transform="translate(54.980469 -15.625)scale(0.7)"/>
      <use xlink:href="#DejaVuSans-d7" transform="translate(102.250977 0.78125)"/>
      <use xlink:href="#DejaVuSans-33" transform="translate(186.040039 0.78125)"/>
     </g>
    </g>
    <g id="PathCollection_10">
     <g>
      <use xlink:href="#m2371628b3f" x="380.56" y="135.252313" style="fill: #6d3657; stroke: #6d3657; stroke-width: 1.215"/>
     </g>
    </g>
    <g id="text_20">
     <!-- $c_1 × 4$ -->
     <g style="fill: #262626" transform="translate(400.36 138.139813)scale(0.11 -0.11)">
      <defs>
       <path id="DejaVuSans-34" d="M 2419 4116 
L 825 1625 
L 2419 1625 
L 2419 4116 
z
M 2253 4666 
L 3047 4666 
L 3047 1625 
L 3713 1625 
L 3713 1100 
L 3047 1100 
L 3047 0 
L 2419 0 
L 2419 1100 
L 313 1100 
L 313 1709 
L 2253 4666 
z
" transform="scale(0.015625)"/>
      </defs>
      <use xlink:href="#DejaVuSans-Oblique-63" transform="translate(0 0.09375)"/>
      <use xlink:href="#DejaVuSans-31" transform="translate(54.980469 -16.3125)scale(0.7)"/>
      <use xlink:href="#DejaVuSans-d7" transform="translate(102.250977 0.09375)"/>
      <use xlink:href="#DejaVuSans-34" transform="translate(186.040039 0.09375)"/>
     </g>
    </g>
    <g id="PathCollection_11">
     <defs>
      <path id="m312fa72b39" d="M 0 2.030369 
C 0.53846 2.030369 1.054939 1.816436 1.435688 1.435688 
C 1.816436 1.054939 2.030369 0.53846 2.030369 0 
C 2.030369 -0.53846 1.816436 -1.054939 1.435688 -1.435688 
C 1.054939 -1.816436 0.53846 -2.030369 0 -2.030369 
C -0.53846 -2.030369 -1.054939 -1.816436 -1.435688 -1.435688 
C -1.816436 -1.054939 -2.030369 -0.53846 -2.030369 0 
C -2.030369 0.53846 -1.816436 1.054939 -1.435688 1.435688 
C -1.054939 1.816436 -0.53846 2.030369 0 2.030369 
z
" style="stroke: #371a36; stroke-width: 1.215"/>
     </defs>
     <g>
      <use xlink:href="#m312fa72b39" x="380.56" y="150.812156" style="fill: #371a36; stroke: #371a36; stroke-width: 1.215"/>
     </g>
    </g>
    <g id="text_21">
     <!-- $c_1 × 5$ -->
     <g style="fill: #262626" transform="translate(400.36 153.699656)scale(0.11 -0.11)">
      <defs>
       <path id="DejaVuSans-35" d="M 691 4666 
L 3169 4666 
L 3169 4134 
L 1269 4134 
L 1269 2991 
Q 1406 3038 1543 3061 
Q 1681 3084 1819 3084 
Q 2600 3084 3056 2656 
Q 3513 2228 3513 1497 
Q 3513 744 3044 326 
Q 2575 -91 1722 -91 
Q 1428 -91 1123 -41 
Q 819 9 494 109 
L 494 744 
Q 775 591 1075 516 
Q 1375 441 1709 441 
Q 2250 441 2565 725 
Q 2881 1009 2881 1497 
Q 2881 1984 2565 2268 
Q 2250 2553 1709 2553 
Q 1456 2553 1204 2497 
Q 953 2441 691 2322 
L 691 4666 
z
" transform="scale(0.015625)"/>
      </defs>
      <use xlink:href="#DejaVuSans-Oblique-63" transform="translate(0 0.09375)"/>
      <use xlink:href="#DejaVuSans-31" transform="translate(54.980469 -16.3125)scale(0.7)"/>
      <use xlink:href="#DejaVuSans-d7" transform="translate(102.250977 0.09375)"/>
      <use xlink:href="#DejaVuSans-35" transform="translate(186.040039 0.09375)"/>
     </g>
    </g>
   </g>
   <g id="line2d_43">
    <path d="M 76.9536 54.196364 
L 157.1328 234.856554 
L 237.312 281.331035 
L 317.4912 290.060589 
L 397.6704 289.97745 
" clip-path="url(#p04c23c9dd5)" style="fill: none; stroke-dasharray: 1.62,2.673; stroke-dashoffset: 0; stroke: #371a36; stroke-width: 1.62"/>
   </g>
   <g id="line2d_44">
    <path clip-path="url(#p04c23c9dd5)" style="fill: none; stroke: #371a36; stroke-width: 2.7; stroke-linecap: round"/>
   </g>
   <g id="line2d_45">
    <path clip-path="url(#p04c23c9dd5)" style="fill: none; stroke: #371a36; stroke-width: 2.7; stroke-linecap: round"/>
   </g>
   <g id="line2d_46">
    <path clip-path="url(#p04c23c9dd5)" style="fill: none; stroke: #371a36; stroke-width: 2.7; stroke-linecap: round"/>
   </g>
   <g id="line2d_47">
    <path clip-path="url(#p04c23c9dd5)" style="fill: none; stroke: #371a36; stroke-width: 2.7; stroke-linecap: round"/>
   </g>
   <g id="line2d_48">
    <path clip-path="url(#p04c23c9dd5)" style="fill: none; stroke: #371a36; stroke-width: 2.7; stroke-linecap: round"/>
   </g>
   <g id="PathCollection_12">
    <g clip-path="url(#p04c23c9dd5)">
     <use xlink:href="#m312fa72b39" x="76.9536" y="54.196364" style="fill: #371a36; stroke: #371a36; stroke-width: 1.215"/>
     <use xlink:href="#m312fa72b39" x="157.1328" y="234.856554" style="fill: #371a36; stroke: #371a36; stroke-width: 1.215"/>
     <use xlink:href="#m312fa72b39" x="237.312" y="281.331035" style="fill: #371a36; stroke: #371a36; stroke-width: 1.215"/>
     <use xlink:href="#m312fa72b39" x="317.4912" y="290.060589" style="fill: #371a36; stroke: #371a36; stroke-width: 1.215"/>
     <use xlink:href="#m312fa72b39" x="397.6704" y="289.97745" style="fill: #371a36; stroke: #371a36; stroke-width: 1.215"/>
    </g>
   </g>
  </g>
 </g>
 <defs>
  <clipPath id="p04c23c9dd5">
   <rect x="36.864" y="41.472" width="400.896" height="279.936"/>
  </clipPath>
 </defs>
</svg>
